<svg width="24" height="24" viewBox="0 0 24 24" fill="none" xmlns="http://www.w3.org/2000/svg">
<path d="M20 10.35L14.22 2.93997C13.9297 2.63767 13.5803 2.39824 13.1936 2.23653C12.8069 2.07482 12.3911 1.99428 11.972 1.99991C11.5529 2.00554 11.1394 2.09721 10.7572 2.26923C10.3749 2.44126 10.0321 2.68998 9.75001 2.99997L4.00001 10.35C3.68165 10.8415 3.51155 11.4143 3.51001 12C3.52671 12.5614 3.69612 13.1076 4.00001 13.58L4.06001 13.65L9.80001 21.06C10.0826 21.3592 10.4238 21.597 10.8023 21.7588C11.1807 21.9205 11.5884 22.0026 12 22C12.4255 21.9996 12.8463 21.9105 13.2355 21.7383C13.6246 21.5661 13.9735 21.3146 14.26 21L20 13.65C20.3137 13.1543 20.4753 12.5775 20.4646 11.991C20.4539 11.4044 20.2716 10.8339 19.94 10.35H20ZM18.43 12.49L12.76 19.71C12.5689 19.886 12.3222 19.9894 12.0627 20.0021C11.8032 20.0149 11.5475 19.9363 11.34 19.78L5.65001 12.47C5.56506 12.3274 5.51694 12.1658 5.51001 12C5.51149 11.8446 5.54555 11.6913 5.61001 11.55L11.28 4.32997C11.4711 4.15398 11.7179 4.05059 11.9773 4.03779C12.2368 4.025 12.4925 4.10363 12.7 4.25997L18.33 11.54C18.434 11.7009 18.4895 11.8884 18.49 12.08C18.4832 12.2218 18.4493 12.361 18.39 12.49H18.43Z" fill="white"/>
</svg>
